<mxfile host="app.diagrams.net" modified="2023-07-08T13:07:53.260Z" agent="Mozilla/5.0 (Windows NT 10.0; Win64; x64) AppleWebKit/537.36 (KHTML, like Gecko) Chrome/114.0.0.0 Safari/537.36" etag="0on0gLOwSl3MlAwSmvR8" version="21.6.1" type="device">
  <diagram id="C5RBs43oDa-KdzZeNtuy" name="Page-1">
    <mxGraphModel dx="880" dy="1631" grid="1" gridSize="10" guides="1" tooltips="1" connect="1" arrows="1" fold="1" page="1" pageScale="1" pageWidth="827" pageHeight="1169" math="0" shadow="0">
      <root>
        <mxCell id="WIyWlLk6GJQsqaUBKTNV-0" />
        <mxCell id="WIyWlLk6GJQsqaUBKTNV-1" parent="WIyWlLk6GJQsqaUBKTNV-0" />
        <mxCell id="WiquPPnONuadfhz3Z73m-10" value="" style="edgeStyle=orthogonalEdgeStyle;rounded=0;orthogonalLoop=1;jettySize=auto;html=1;" parent="WIyWlLk6GJQsqaUBKTNV-1" source="WiquPPnONuadfhz3Z73m-0" target="WiquPPnONuadfhz3Z73m-2" edge="1">
          <mxGeometry relative="1" as="geometry" />
        </mxCell>
        <mxCell id="WiquPPnONuadfhz3Z73m-0" value="Start" style="ellipse;whiteSpace=wrap;html=1;" parent="WIyWlLk6GJQsqaUBKTNV-1" vertex="1">
          <mxGeometry x="445" y="-40" width="100" height="60" as="geometry" />
        </mxCell>
        <mxCell id="WiquPPnONuadfhz3Z73m-1" value="Stop" style="ellipse;whiteSpace=wrap;html=1;" parent="WIyWlLk6GJQsqaUBKTNV-1" vertex="1">
          <mxGeometry x="250" y="80" width="100" height="60" as="geometry" />
        </mxCell>
        <mxCell id="WiquPPnONuadfhz3Z73m-11" value="" style="edgeStyle=orthogonalEdgeStyle;rounded=0;orthogonalLoop=1;jettySize=auto;html=1;" parent="WIyWlLk6GJQsqaUBKTNV-1" source="WiquPPnONuadfhz3Z73m-2" target="WiquPPnONuadfhz3Z73m-9" edge="1">
          <mxGeometry relative="1" as="geometry" />
        </mxCell>
        <mxCell id="WiquPPnONuadfhz3Z73m-2" value="Przygotuj płyn do zmywania, gąbkę oraz &lt;br&gt;wypełnij zlew ciepłą wodą" style="shape=parallelogram;perimeter=parallelogramPerimeter;whiteSpace=wrap;html=1;fixedSize=1;" parent="WIyWlLk6GJQsqaUBKTNV-1" vertex="1">
          <mxGeometry x="365" y="40" width="260" height="40" as="geometry" />
        </mxCell>
        <mxCell id="WiquPPnONuadfhz3Z73m-17" style="edgeStyle=orthogonalEdgeStyle;rounded=0;orthogonalLoop=1;jettySize=auto;html=1;entryX=1;entryY=0.5;entryDx=0;entryDy=0;" parent="WIyWlLk6GJQsqaUBKTNV-1" source="WiquPPnONuadfhz3Z73m-3" target="WiquPPnONuadfhz3Z73m-5" edge="1">
          <mxGeometry relative="1" as="geometry">
            <Array as="points">
              <mxPoint x="640" y="310" />
            </Array>
          </mxGeometry>
        </mxCell>
        <mxCell id="WiquPPnONuadfhz3Z73m-3" value="Usuń resztki jedzenia" style="rounded=0;whiteSpace=wrap;html=1;" parent="WIyWlLk6GJQsqaUBKTNV-1" vertex="1">
          <mxGeometry x="580" y="190" width="120" height="40" as="geometry" />
        </mxCell>
        <mxCell id="WiquPPnONuadfhz3Z73m-28" style="edgeStyle=orthogonalEdgeStyle;rounded=0;orthogonalLoop=1;jettySize=auto;html=1;" parent="WIyWlLk6GJQsqaUBKTNV-1" source="WiquPPnONuadfhz3Z73m-5" target="WiquPPnONuadfhz3Z73m-19" edge="1">
          <mxGeometry relative="1" as="geometry" />
        </mxCell>
        <mxCell id="WiquPPnONuadfhz3Z73m-5" value="Zanurz naczynia w wodzie z detergnetem" style="rounded=0;whiteSpace=wrap;html=1;" parent="WIyWlLk6GJQsqaUBKTNV-1" vertex="1">
          <mxGeometry x="435" y="290" width="120" height="40" as="geometry" />
        </mxCell>
        <mxCell id="WiquPPnONuadfhz3Z73m-7" style="edgeStyle=orthogonalEdgeStyle;rounded=0;orthogonalLoop=1;jettySize=auto;html=1;exitX=0.5;exitY=1;exitDx=0;exitDy=0;" parent="WIyWlLk6GJQsqaUBKTNV-1" source="WiquPPnONuadfhz3Z73m-2" target="WiquPPnONuadfhz3Z73m-2" edge="1">
          <mxGeometry relative="1" as="geometry" />
        </mxCell>
        <mxCell id="WiquPPnONuadfhz3Z73m-12" value="tak" style="edgeStyle=orthogonalEdgeStyle;rounded=0;orthogonalLoop=1;jettySize=auto;html=1;" parent="WIyWlLk6GJQsqaUBKTNV-1" source="WiquPPnONuadfhz3Z73m-8" target="WiquPPnONuadfhz3Z73m-3" edge="1">
          <mxGeometry relative="1" as="geometry" />
        </mxCell>
        <mxCell id="WiquPPnONuadfhz3Z73m-13" value="nie" style="edgeStyle=orthogonalEdgeStyle;rounded=0;orthogonalLoop=1;jettySize=auto;html=1;" parent="WIyWlLk6GJQsqaUBKTNV-1" source="WiquPPnONuadfhz3Z73m-8" target="WiquPPnONuadfhz3Z73m-5" edge="1">
          <mxGeometry relative="1" as="geometry" />
        </mxCell>
        <mxCell id="WiquPPnONuadfhz3Z73m-8" value="Czy są resztki jedzenia?" style="rhombus;whiteSpace=wrap;html=1;" parent="WIyWlLk6GJQsqaUBKTNV-1" vertex="1">
          <mxGeometry x="455" y="170" width="80" height="80" as="geometry" />
        </mxCell>
        <mxCell id="WiquPPnONuadfhz3Z73m-18" style="edgeStyle=orthogonalEdgeStyle;rounded=0;orthogonalLoop=1;jettySize=auto;html=1;entryX=0.5;entryY=0;entryDx=0;entryDy=0;" parent="WIyWlLk6GJQsqaUBKTNV-1" source="WiquPPnONuadfhz3Z73m-9" target="WiquPPnONuadfhz3Z73m-8" edge="1">
          <mxGeometry relative="1" as="geometry" />
        </mxCell>
        <mxCell id="WiquPPnONuadfhz3Z73m-9" value="Wlej trochę płynu do wody" style="rounded=0;whiteSpace=wrap;html=1;" parent="WIyWlLk6GJQsqaUBKTNV-1" vertex="1">
          <mxGeometry x="435" y="110" width="120" height="40" as="geometry" />
        </mxCell>
        <mxCell id="WiquPPnONuadfhz3Z73m-29" style="edgeStyle=orthogonalEdgeStyle;rounded=0;orthogonalLoop=1;jettySize=auto;html=1;entryX=0.5;entryY=0;entryDx=0;entryDy=0;" parent="WIyWlLk6GJQsqaUBKTNV-1" source="WiquPPnONuadfhz3Z73m-19" target="WiquPPnONuadfhz3Z73m-20" edge="1">
          <mxGeometry relative="1" as="geometry" />
        </mxCell>
        <mxCell id="WiquPPnONuadfhz3Z73m-19" value="Użyj gąbki do zmywania naczyń" style="rounded=0;whiteSpace=wrap;html=1;" parent="WIyWlLk6GJQsqaUBKTNV-1" vertex="1">
          <mxGeometry x="435" y="350" width="120" height="40" as="geometry" />
        </mxCell>
        <mxCell id="WiquPPnONuadfhz3Z73m-30" style="edgeStyle=orthogonalEdgeStyle;rounded=0;orthogonalLoop=1;jettySize=auto;html=1;entryX=0.5;entryY=0;entryDx=0;entryDy=0;" parent="WIyWlLk6GJQsqaUBKTNV-1" source="WiquPPnONuadfhz3Z73m-20" target="WiquPPnONuadfhz3Z73m-21" edge="1">
          <mxGeometry relative="1" as="geometry" />
        </mxCell>
        <mxCell id="WiquPPnONuadfhz3Z73m-20" value="Spłucz naczynia pod bieżącą wodą" style="rounded=0;whiteSpace=wrap;html=1;" parent="WIyWlLk6GJQsqaUBKTNV-1" vertex="1">
          <mxGeometry x="435" y="410" width="120" height="40" as="geometry" />
        </mxCell>
        <mxCell id="WiquPPnONuadfhz3Z73m-35" style="edgeStyle=orthogonalEdgeStyle;rounded=0;orthogonalLoop=1;jettySize=auto;html=1;entryX=1;entryY=0.5;entryDx=0;entryDy=0;" parent="WIyWlLk6GJQsqaUBKTNV-1" source="WiquPPnONuadfhz3Z73m-21" target="WiquPPnONuadfhz3Z73m-24" edge="1">
          <mxGeometry relative="1" as="geometry" />
        </mxCell>
        <mxCell id="WiquPPnONuadfhz3Z73m-21" value="Umieść umyte naczynia w stojaku do wysuszenia" style="rounded=0;whiteSpace=wrap;html=1;" parent="WIyWlLk6GJQsqaUBKTNV-1" vertex="1">
          <mxGeometry x="435" y="480" width="120" height="40" as="geometry" />
        </mxCell>
        <mxCell id="WiquPPnONuadfhz3Z73m-38" style="edgeStyle=orthogonalEdgeStyle;rounded=0;orthogonalLoop=1;jettySize=auto;html=1;entryX=0.5;entryY=1;entryDx=0;entryDy=0;" parent="WIyWlLk6GJQsqaUBKTNV-1" source="WiquPPnONuadfhz3Z73m-22" target="WiquPPnONuadfhz3Z73m-23" edge="1">
          <mxGeometry relative="1" as="geometry" />
        </mxCell>
        <mxCell id="WiquPPnONuadfhz3Z73m-22" value="Opłucz zlew bieżącą woda" style="rounded=0;whiteSpace=wrap;html=1;" parent="WIyWlLk6GJQsqaUBKTNV-1" vertex="1">
          <mxGeometry x="240" y="240" width="120" height="40" as="geometry" />
        </mxCell>
        <mxCell id="WiquPPnONuadfhz3Z73m-39" style="edgeStyle=orthogonalEdgeStyle;rounded=0;orthogonalLoop=1;jettySize=auto;html=1;entryX=0.5;entryY=1;entryDx=0;entryDy=0;" parent="WIyWlLk6GJQsqaUBKTNV-1" source="WiquPPnONuadfhz3Z73m-23" target="WiquPPnONuadfhz3Z73m-1" edge="1">
          <mxGeometry relative="1" as="geometry" />
        </mxCell>
        <mxCell id="WiquPPnONuadfhz3Z73m-23" value="Wytrzyj zlew i okolice, pozostaw do wyschnięcia" style="rounded=0;whiteSpace=wrap;html=1;" parent="WIyWlLk6GJQsqaUBKTNV-1" vertex="1">
          <mxGeometry x="240" y="170" width="120" height="40" as="geometry" />
        </mxCell>
        <mxCell id="WiquPPnONuadfhz3Z73m-33" value="tak" style="edgeStyle=orthogonalEdgeStyle;rounded=0;orthogonalLoop=1;jettySize=auto;html=1;entryX=0;entryY=0.5;entryDx=0;entryDy=0;" parent="WIyWlLk6GJQsqaUBKTNV-1" source="WiquPPnONuadfhz3Z73m-24" target="WiquPPnONuadfhz3Z73m-5" edge="1">
          <mxGeometry relative="1" as="geometry" />
        </mxCell>
        <mxCell id="WiquPPnONuadfhz3Z73m-36" value="nie" style="edgeStyle=orthogonalEdgeStyle;rounded=0;orthogonalLoop=1;jettySize=auto;html=1;entryX=0.5;entryY=1;entryDx=0;entryDy=0;" parent="WIyWlLk6GJQsqaUBKTNV-1" source="WiquPPnONuadfhz3Z73m-24" target="WiquPPnONuadfhz3Z73m-22" edge="1">
          <mxGeometry relative="1" as="geometry" />
        </mxCell>
        <mxCell id="WiquPPnONuadfhz3Z73m-24" value="Czy są jeszcze brudne naczynia?" style="rhombus;whiteSpace=wrap;html=1;direction=south;" parent="WIyWlLk6GJQsqaUBKTNV-1" vertex="1">
          <mxGeometry x="260" y="330" width="80" height="80" as="geometry" />
        </mxCell>
      </root>
    </mxGraphModel>
  </diagram>
</mxfile>
